<svg xmlns="http://www.w3.org/2000/svg" viewBox="0 0 512 512" style="height: 512px; width: 512px;"><defs><filter id="shadow-1" height="300%" width="300%" x="-100%" y="-100%"><feFlood flood-color="rgba(255, 255, 255, 1)" result="flood"></feFlood><feComposite in="flood" in2="SourceGraphic" operator="atop" result="composite"></feComposite><feGaussianBlur in="composite" stdDeviation="15" result="blur"></feGaussianBlur><feOffset dx="0" dy="0" result="offset"></feOffset><feComposite in="SourceGraphic" in2="offset" operator="over"></feComposite></filter><linearGradient x1="0" x2="1" y1="1" y2="0" id="delapouite-rss-gradient-0"><stop offset="0%" stop-color="#595959" stop-opacity="1"></stop><stop offset="100%" stop-color="#d9d9d9" stop-opacity="1"></stop></linearGradient></defs><rect fill="url(#delapouite-rss-gradient-0)" height="512" width="512" rx="32" ry="32"></rect><g class="" transform="translate(0,0)" style=""><path d="M27.906 27.28v91.44a365.765 365.765 0 0 1 365.75 365.78h91.438A457.207 457.207 0 0 0 27.906 27.28zm0 154.157v88.813a214.234 214.234 0 0 1 214.22 214.25h88.843A303.063 303.063 0 0 0 27.905 181.437zM88.75 359.125a62.703 62.703 0 0 0-60.844 62.656 62.703 62.703 0 0 0 125.375 0 62.703 62.703 0 0 0-64.53-62.655z" fill="#001529" transform="translate(25.6, 25.6) scale(0.9, 0.9) rotate(180, 256, 256) skewX(0) skewY(0)" filter="url(#shadow-1)" fill-opacity="1"></path></g></svg>